<svg xmlns="http://www.w3.org/2000/svg" viewBox="0 0 64 64">
  <defs>
    <linearGradient id="grad" x1="0%" y1="0%" x2="100%" y2="100%">
      <stop offset="0%" stop-color="#1a3a6c" />
      <stop offset="100%" stop-color="#284f94" />
    </linearGradient>
    <linearGradient id="accent" x1="0%" y1="0%" x2="0%" y2="100%">
      <stop offset="0%" stop-color="#f3a04d" />
      <stop offset="100%" stop-color="#e67e22" />
    </linearGradient>
  </defs>
  <rect x="6" y="6" width="52" height="52" rx="16" fill="url(#grad)" />
  <path
    d="M46 18.5c-4.2-3.1-8.5-4.5-13-4.5-9.7 0-17.3 6.7-18.9 17h-4.1v4.5h3.6c0 0.5-0.1 1.6-0.1 2.5 0 0.8 0 1.6 0.1 2.3h-3.6v4.5h4.3c1.9 10 9.5 17.2 18.7 17.2 4.7 0 8.7-1.3 12.6-4l-3-5.1c-2.8 1.8-5.6 2.7-9.1 2.7-5.1 0-9.8-3.9-11.3-10.8h15.4v-4.5H19.9c-0.1-0.7-0.1-1.4-0.1-2.1 0-1.1 0.1-2.3 0.2-2.9h16.6v-4.5H21.5c1.8-6.4 6.2-10.4 11.6-10.4 3.6 0 6.2 0.9 9.2 3.1l3.7-4.8z"
    fill="#ffffff"
    fill-opacity="0.92"
  />
  <path
    d="M50.5 15.5l7-3.5-3.5 7-3.5 7-3.5-7z"
    fill="url(#accent)"
    transform="rotate(-15 50.5 19)"
  />
</svg>

